DataType=double
version=3
OpenSimVersion=4.2
endheader
time	ground_force_r_vx	ground_force_r_vy	ground_force_r_vz	ground_force_r_px	ground_force_r_py	ground_force_r_pz	ground_force_l_vx	ground_force_l_vy	ground_force_l_vz	ground_force_l_px	ground_force_l_py	ground_force_l_pz	ground_torque_r_x	ground_torque_r_y	ground_torque_r_z	ground_torque_l_x	ground_torque_l_y	ground_torque_l_z
1.135395571700626	0	0	0	0	0	0	-1357.120593382132	343.4354341135804	0	0	0	0	0	0	0	0	0	-14.21571633594088
1.136732549559129	0	0	0	0	0	0	-2156.701453417752	527.7564044339839	0	0	0	0	0	0	0	0	0	-22.05029147997767
1.138069527417632	0	0	0	0	0	0	-3119.394630484263	746.7535970450826	0	0	0	0	0	0	0	0	0	-32.73993356475237
1.139406505276136	0	0	0	0	0	0	-4213.68271546008	998.607277363436	0	0	0	0	0	0	0	0	0	-44.21619982724953
1.140743483134639	0	0	0	0	0	0	-5420.080823374188	1287.327568166787	0	0	0	0	0	0	0	0	0	-53.83236185818479
1.142080460993142	0	0	0	0	0	0	-6680.061721944439	1611.31695192264	0	0	0	0	0	0	0	0	0	-59.32948376149523
1.143417438851645	0	0	0	0	0	0	-7915.001330874018	1968.092625611818	0	0	0	0	0	0	0	0	0	-58.87412230299564
1.144754416710148	0	0	0	0	0	0	-8991.474858454674	2353.577939760925	0	0	0	0	0	0	0	0	0	-49.56498117129969
1.146091394568651	0	0	0	0	0	0	-9627.926860158566	2761.72344692144	0	0	0	0	0	0	0	0	0	-24.25646495595493
1.147428372427154	0	0	0	0	0	0	-9638.074756739659	3226.943548476215	0	0	0	0	0	0	0	0	0	28.594106649815
1.148765350285657	0	0	0	0	0	0	-9367.704556962646	3919.815742878827	0	0	0	0	0	0	0	0	0	134.3045175804683
1.150102328144161	0	0	0	0	0	0	-9451.607382515005	5339.652166651447	0	0	0	0	0	0	0	0	0	382.2259326231302
1.151439306002664	0	0	0	0	0	0	-8484.795200726337	7135.762384865671	0	0	0	0	0	0	0	0	0	721.5410651743769
1.152776283861167	0	0	0	0	0	0	-4886.733593421436	6828.117295228114	0	0	0	0	0	0	0	0	0	711.0414575550383
1.15411326171967	0	0	0	0	0	0	-1224.543405852842	4916.156866447704	0	0	0	0	0	0	0	0	0	425.7206440715347
1.155450239578173	0	0	0	0	0	0	-963.5054624474453	4059.251582591762	0	0	0	0	0	0	0	0	0	322.0211162663707
1.156787217436676	0	0	0	0	0	0	-953.0676191474448	3743.540896752682	0	0	0	0	0	0	0	0	0	328.2999377733614
1.158124195295179	0	0	0	0	0	0	-955.9115972269267	3484.435304483871	0	0	0	0	0	0	0	0	0	349.4430322445892
1.159461173153682	0	0	0	0	0	0	-965.7930837881464	3227.962778712742	0	0	0	0	0	0	0	0	0	369.4937884716757
1.160798151012186	0	0	0	0	0	0	-923.924186679719	2940.049713763872	0	0	0	0	0	0	0	0	0	380.6162371645247
1.162135128870689	0	0	0	0	0	0	-972.8933279682724	2650.779567622203	0	0	0	0	0	0	0	0	0	384.4304102284678
1.163472106729192	0	0	0	0	0	0	-1002.564145484423	2382.493999871403	0	0	0	0	0	0	0	0	0	387.0101670807256
1.164809084587695	0	0	0	0	0	0	-1085.839347245204	2313.201974206582	0	0	0	0	0	0	0	0	0	392.4945064483196
1.166146062446198	0	0	0	0	0	0	-1057.702191497852	2337.339977049027	0	0	0	0	0	0	0	0	0	401.6092996839531
1.167483040304701	0	0	0	0	0	0	-1073.13366325472	2321.316039072574	0	0	0	0	0	0	0	0	0	403.1288572682479
1.168820018163204	0	0	0	0	0	0	-1044.384741005017	2304.437516983672	0	0	0	0	0	0	0	0	0	404.9663915396716
1.170156996021708	0	0	0	0	0	0	-1030.499972961054	2265.151046340374	0	0	0	0	0	0	0	0	0	402.4272818765529
1.171493973880211	0	0	0	0	0	0	-999.2629267731526	2222.271745442432	0	0	0	0	0	0	0	0	0	399.2540352535224
1.172830951738714	0	0	0	0	0	0	-973.5779340315808	2167.42934322968	0	0	0	0	0	0	0	0	0	393.4726594640358
1.174167929597217	0	0	0	0	0	0	-943.163244010596	2112.975074564899	0	0	0	0	0	0	0	0	0	387.3512940613853
1.17550490745572	0	0	0	0	0	0	-919.1205685388268	2057.702140753767	0	0	0	0	0	0	0	0	0	380.30622593337
1.176841885314223	0	0	0	0	0	0	-896.337597301349	2004.917126569226	0	0	0	0	0	0	0	0	0	373.117498089475
1.178178863172726	0	0	0	0	0	0	-888.915094558498	1975.907818484936	0	0	0	0	0	0	0	0	0	367.1452472920361
1.179515841031229	0	0	0	0	0	0	-886.836450726927	1970.521061436942	0	0	0	0	0	0	0	0	0	363.3558496203148
1.180852818889733	0	0	0	0	0	0	-884.4762805888209	1968.937445469983	0	0	0	0	0	0	0	0	0	360.4278757256201
1.182189796748236	0	0	0	0	0	0	-880.6643085866325	1971.333263370355	0	0	0	0	0	0	0	0	0	358.2666557263587
1.183526774606739	0	0	0	0	0	0	-875.697235688395	1977.896610610467	0	0	0	0	0	0	0	0	0	356.9024631743042
1.184863752465242	0	0	0	0	0	0	-868.6742076271228	1988.662196008925	0	0	0	0	0	0	0	0	0	356.3978393308497
1.186200730323745	0	0	0	0	0	0	-854.7022550023464	2002.789510320413	0	0	0	0	0	0	0	0	0	356.8298889668512
1.187537708182248	0	0	0	0	0	0	-832.0825418849892	2019.00149100848	0	0	0	0	0	0	0	0	0	358.0930589240182
1.188874686040751	0	0	0	0	0	0	-801.1943113622946	2037.545496295625	0	0	0	0	0	0	0	0	0	360.2943978945782
1.190211663899254	0	0	0	0	0	0	-762.2315068746478	2058.992910653325	0	0	0	0	0	0	0	0	0	363.605399180786
1.191548641757758	0	0	0	0	0	0	-715.3871810474762	2084.128807722394	0	0	0	0	0	0	0	0	0	368.2318210831455
1.192885619616261	0	0	0	0	0	0	-660.7332884531294	2114.096009072	0	0	0	0	0	0	0	0	0	374.4612542888322
1.194222597474764	0	0	0	0	0	0	-598.7413793465737	2149.951133000532	0	0	0	0	0	0	0	0	0	382.5571452750895
1.195559575333267	0	0	0	0	0	0	-537.2730641619688	2202.580807871893	0	0	0	0	0	0	0	0	0	393.4526922298306
1.19689655319177	0	0	0	0	0	0	-474.2193284544957	2271.186198795014	0	0	0	0	0	0	0	0	0	407.0485167322493
1.198233531050273	0	0	0	0	0	0	-399.172358119841	2340.550723735009	0	0	0	0	0	0	0	0	0	421.9281908535697
1.199570508908776	0	0	0	0	0	0	-314.3329897552417	2412.036064045152	0	0	0	0	0	0	0	0	0	438.1896199982044
1.20090748676728	0	0	0	0	0	0	-221.5404582625808	2486.969698030042	0	0	0	0	0	0	0	0	0	455.9563645216497
1.202244464625783	0	0	0	0	0	0	-120.4776278292001	2564.657262271433	0	0	0	0	0	0	0	0	0	475.1171490262074
1.203581442484286	0	0	0	0	0	0	-11.47865804953053	2644.907833798407	0	0	0	0	0	0	0	0	0	495.6108039454938
1.204918420342789	0	0	0	0	0	0	105.0287900835335	2727.66203415657	0	0	0	0	0	0	0	0	0	517.3891845219795
1.206255398201292	0	0	0	0	0	0	228.384270572488	2812.719691715656	0	0	0	0	0	0	0	0	0	540.3601729345872
1.207592376059795	0	0	0	0	0	0	357.8447243839694	2899.889763345443	0	0	0	0	0	0	0	0	0	564.4249188326991
1.208929353918298	0	0	0	0	0	0	492.868418424166	2988.996930678999	0	0	0	0	0	0	0	0	0	589.4985936360071
1.210266331776801	0	0	0	0	0	0	633.3492896479817	3079.434392889802	0	0	0	0	0	0	0	0	0	615.4539538875511
1.211603309635305	0	0	0	0	0	0	777.8217120972325	3170.216511892569	0	0	0	0	0	0	0	0	0	642.0014040117554
